<?xml version="1.0" encoding="utf-8"?>
<!-- Generator: Adobe Illustrator 16.0.0, SVG Export Plug-In . SVG Version: 6.00 Build 0)  -->
<!DOCTYPE svg PUBLIC "-//W3C//DTD SVG 1.1//EN" "http://www.w3.org/Graphics/SVG/1.1/DTD/svg11.dtd">
<svg version="1.1" id="Layer_1" xmlns="http://www.w3.org/2000/svg" xmlns:xlink="http://www.w3.org/1999/xlink" x="0px" y="0px"
	 width="480px" height="480px" viewBox="0 0 480 480" enable-background="new 0 0 480 480" xml:space="preserve">
<rect x="37.698" y="34.643" fill="#8C8C8C" width="77.84" height="77.84"/>
<rect x="146.501" y="34.644" fill="#8C8C8C" width="77.841" height="77.841"/>
<rect x="37.698" y="145.489" fill="#8C8C8C" width="77.84" height="77.839"/>
<rect x="146.501" y="145.49" fill="#8C8C8C" width="77.841" height="77.84"/>
<rect x="255.657" y="34.978" fill="#8C8C8C" width="77.84" height="77.84"/>
<rect x="364.46" y="34.979" fill="#8C8C8C" width="77.842" height="77.841"/>
<rect x="255.657" y="145.824" fill="#8C8C8C" width="77.84" height="77.839"/>
<rect x="364.46" y="145.825" fill="#8C8C8C" width="77.842" height="77.84"/>
<rect x="37.698" y="256.67" fill="#8C8C8C" width="77.84" height="77.842"/>
<rect x="146.501" y="256.67" fill="#8C8C8C" width="77.841" height="77.842"/>
<rect x="37.698" y="367.516" fill="#8C8C8C" width="77.84" height="77.84"/>
<rect x="146.501" y="367.518" fill="#8C8C8C" width="77.841" height="77.84"/>
<rect x="255.657" y="256.67" fill="#8C8C8C" width="77.84" height="77.84"/>
<rect x="364.46" y="256.67" fill="#8C8C8C" width="77.842" height="77.842"/>
<rect x="255.657" y="367.516" fill="#8C8C8C" width="77.84" height="77.84"/>
<rect x="364.46" y="367.518" fill="#8C8C8C" width="77.842" height="77.84"/>
</svg>
