<?xml version="1.0" encoding="utf-8"?>
<!-- Generator: Adobe Illustrator 16.0.0, SVG Export Plug-In . SVG Version: 6.00 Build 0)  -->
<!DOCTYPE svg PUBLIC "-//W3C//DTD SVG 1.1//EN" "http://www.w3.org/Graphics/SVG/1.1/DTD/svg11.dtd">
<svg version="1.1" id="Layer_1" xmlns="http://www.w3.org/2000/svg" xmlns:xlink="http://www.w3.org/1999/xlink" x="0px" y="0px"
	 width="480px" height="480px" viewBox="0 0 480 480" enable-background="new 0 0 480 480" xml:space="preserve">
<rect x="48.299" y="45.449" fill="#8C8C8C" width="39.723" height="39.722"/>
<rect x="116.846" y="45.449" fill="#8C8C8C" width="39.722" height="39.723"/>
<rect x="48.299" y="115.282" fill="#8C8C8C" width="39.723" height="39.721"/>
<rect x="116.846" y="115.282" fill="#8C8C8C" width="39.722" height="39.722"/>
<rect x="186.175" y="45.659" fill="#8C8C8C" width="39.721" height="39.723"/>
<rect x="254.719" y="45.659" fill="#8C8C8C" width="39.725" height="39.723"/>
<rect x="186.175" y="115.493" fill="#8C8C8C" width="39.721" height="39.721"/>
<rect x="254.719" y="115.493" fill="#8C8C8C" width="39.725" height="39.722"/>
<rect x="48.299" y="185.325" fill="#8C8C8C" width="39.723" height="39.724"/>
<rect x="116.846" y="185.325" fill="#8C8C8C" width="39.722" height="39.724"/>
<rect x="48.299" y="255.159" fill="#8C8C8C" width="39.723" height="39.722"/>
<rect x="116.846" y="255.161" fill="#8C8C8C" width="39.722" height="39.72"/>
<rect x="186.175" y="185.325" fill="#8C8C8C" width="39.721" height="39.723"/>
<rect x="254.719" y="185.324" fill="#8C8C8C" width="39.725" height="39.724"/>
<rect x="186.175" y="255.158" fill="#8C8C8C" width="39.721" height="39.723"/>
<rect x="254.719" y="255.16" fill="#8C8C8C" width="39.725" height="39.72"/>
<rect x="322.704" y="45.66" fill="#8C8C8C" width="39.723" height="39.723"/>
<rect x="322.704" y="115.494" fill="#8C8C8C" width="39.723" height="39.722"/>
<rect x="322.704" y="185.325" fill="#8C8C8C" width="39.723" height="39.724"/>
<rect x="322.704" y="255.161" fill="#8C8C8C" width="39.723" height="39.72"/>
<rect x="48.411" y="324.994" fill="#8C8C8C" width="39.722" height="39.722"/>
<rect x="116.957" y="324.994" fill="#8C8C8C" width="39.722" height="39.722"/>
<rect x="186.287" y="324.994" fill="#8C8C8C" width="39.722" height="39.721"/>
<rect x="254.83" y="324.993" fill="#8C8C8C" width="39.725" height="39.722"/>
<rect x="322.813" y="324.994" fill="#8C8C8C" width="39.725" height="39.722"/>
<rect x="391.358" y="45.659" fill="#8C8C8C" width="39.725" height="39.722"/>
<rect x="391.976" y="115.492" fill="#8C8C8C" width="39.725" height="39.722"/>
<rect x="391.976" y="185.325" fill="#8C8C8C" width="39.725" height="39.724"/>
<rect x="391.976" y="255.159" fill="#8C8C8C" width="39.725" height="39.72"/>
<rect x="391.47" y="324.992" fill="#8C8C8C" width="39.725" height="39.722"/>
<rect x="48.917" y="394.83" fill="#8C8C8C" width="39.722" height="39.721"/>
<rect x="117.462" y="394.832" fill="#8C8C8C" width="39.723" height="39.719"/>
<rect x="186.231" y="394.83" fill="#8C8C8C" width="39.722" height="39.721"/>
<rect x="254.774" y="394.832" fill="#8C8C8C" width="39.725" height="39.719"/>
<rect x="323.321" y="394.832" fill="#8C8C8C" width="39.723" height="39.719"/>
<rect x="391.976" y="394.83" fill="#8C8C8C" width="39.725" height="39.721"/>
</svg>
