<?xml version="1.0" encoding="utf-8"?>
<!-- Generator: Adobe Illustrator 16.0.0, SVG Export Plug-In . SVG Version: 6.00 Build 0)  -->
<!DOCTYPE svg PUBLIC "-//W3C//DTD SVG 1.1//EN" "http://www.w3.org/Graphics/SVG/1.1/DTD/svg11.dtd">
<svg version="1.1" id="Layer_1" xmlns="http://www.w3.org/2000/svg" xmlns:xlink="http://www.w3.org/1999/xlink" x="0px" y="0px"
	 width="480px" height="480px" viewBox="0 0 480 480" enable-background="new 0 0 480 480" xml:space="preserve">
<rect x="33.039" y="29.655" fill="#8C8C8C" width="36.412" height="36.412"/>
<rect x="95.873" y="29.655" fill="#8C8C8C" width="36.412" height="36.413"/>
<rect x="33.039" y="93.668" fill="#8C8C8C" width="36.412" height="36.412"/>
<rect x="95.873" y="93.668" fill="#8C8C8C" width="36.412" height="36.413"/>
<rect x="158.911" y="29.848" fill="#8C8C8C" width="36.41" height="36.412"/>
<rect x="221.743" y="29.849" fill="#8C8C8C" width="36.413" height="36.412"/>
<rect x="158.911" y="93.862" fill="#8C8C8C" width="36.41" height="36.411"/>
<rect x="221.743" y="93.863" fill="#8C8C8C" width="36.413" height="36.412"/>
<rect x="33.039" y="157.875" fill="#8C8C8C" width="36.412" height="36.414"/>
<rect x="95.873" y="157.875" fill="#8C8C8C" width="36.412" height="36.414"/>
<rect x="33.039" y="221.887" fill="#8C8C8C" width="36.412" height="36.414"/>
<rect x="95.873" y="221.89" fill="#8C8C8C" width="36.412" height="36.411"/>
<rect x="158.911" y="157.875" fill="#8C8C8C" width="36.41" height="36.412"/>
<rect x="221.743" y="157.875" fill="#8C8C8C" width="36.413" height="36.414"/>
<rect x="158.911" y="221.887" fill="#8C8C8C" width="36.41" height="36.414"/>
<rect x="221.743" y="221.89" fill="#8C8C8C" width="36.413" height="36.411"/>
<rect x="284.578" y="29.849" fill="#8C8C8C" width="36.412" height="36.412"/>
<rect x="284.578" y="93.863" fill="#8C8C8C" width="36.412" height="36.412"/>
<rect x="284.578" y="157.875" fill="#8C8C8C" width="36.412" height="36.414"/>
<rect x="284.578" y="221.89" fill="#8C8C8C" width="36.412" height="36.411"/>
<rect x="33.141" y="285.904" fill="#8C8C8C" width="36.412" height="36.41"/>
<rect x="95.975" y="285.904" fill="#8C8C8C" width="36.412" height="36.41"/>
<rect x="159.013" y="285.904" fill="#8C8C8C" width="36.411" height="36.41"/>
<rect x="221.844" y="285.904" fill="#8C8C8C" width="36.416" height="36.41"/>
<rect x="284.68" y="285.904" fill="#8C8C8C" width="36.414" height="36.41"/>
<rect x="347.512" y="29.847" fill="#8C8C8C" width="36.412" height="36.412"/>
<rect x="347.512" y="93.861" fill="#8C8C8C" width="36.412" height="36.412"/>
<rect x="347.512" y="157.874" fill="#8C8C8C" width="36.412" height="36.413"/>
<rect x="347.512" y="221.887" fill="#8C8C8C" width="36.412" height="36.412"/>
<rect x="410.346" y="29.847" fill="#8C8C8C" width="36.412" height="36.412"/>
<rect x="410.346" y="93.861" fill="#8C8C8C" width="36.412" height="36.412"/>
<rect x="410.346" y="157.874" fill="#8C8C8C" width="36.412" height="36.413"/>
<rect x="410.346" y="221.887" fill="#8C8C8C" width="36.412" height="36.412"/>
<rect x="347.613" y="285.902" fill="#8C8C8C" width="36.414" height="36.41"/>
<rect x="410.447" y="285.902" fill="#8C8C8C" width="36.412" height="36.41"/>
<rect x="33.141" y="349.916" fill="#8C8C8C" width="36.413" height="36.414"/>
<rect x="95.976" y="349.918" fill="#8C8C8C" width="36.412" height="36.412"/>
<rect x="159.013" y="349.916" fill="#8C8C8C" width="36.411" height="36.414"/>
<rect x="221.846" y="349.918" fill="#8C8C8C" width="36.412" height="36.412"/>
<rect x="284.68" y="349.918" fill="#8C8C8C" width="36.41" height="36.412"/>
<rect x="33.242" y="413.934" fill="#8C8C8C" width="36.413" height="36.412"/>
<rect x="96.077" y="413.934" fill="#8C8C8C" width="36.412" height="36.412"/>
<rect x="159.114" y="413.934" fill="#8C8C8C" width="36.411" height="36.412"/>
<rect x="221.946" y="413.934" fill="#8C8C8C" width="36.415" height="36.412"/>
<rect x="284.779" y="413.934" fill="#8C8C8C" width="36.414" height="36.412"/>
<rect x="347.613" y="349.916" fill="#8C8C8C" width="36.412" height="36.412"/>
<rect x="410.447" y="349.916" fill="#8C8C8C" width="36.41" height="36.412"/>
<rect x="347.715" y="413.932" fill="#8C8C8C" width="36.414" height="36.412"/>
<rect x="410.547" y="413.932" fill="#8C8C8C" width="36.414" height="36.412"/>
</svg>
