<?xml version="1.0" encoding="UTF-8" standalone="no"?>
<!-- Created with Inkscape (http://www.inkscape.org/) -->

<svg
   xmlns:dc="http://purl.org/dc/elements/1.1/"
   xmlns:cc="http://creativecommons.org/ns#"
   xmlns:rdf="http://www.w3.org/1999/02/22-rdf-syntax-ns#"
   xmlns:svg="http://www.w3.org/2000/svg"
   xmlns="http://www.w3.org/2000/svg"
   xmlns:sodipodi="http://sodipodi.sourceforge.net/DTD/sodipodi-0.dtd"
   xmlns:inkscape="http://www.inkscape.org/namespaces/inkscape"
   width="113.13801mm"
   height="94.763863mm"
   viewBox="0 0 400.88271 335.77746"
   id="svg2"
   version="1.1"
   inkscape:version="0.91 r13725"
   sodipodi:docname="hydra.svg"
   inkscape:export-filename="/home/jeremy/gitting/ccm/hydra.png"
   inkscape:export-xdpi="90"
   inkscape:export-ydpi="90">
  <defs
     id="defs4" />
  <sodipodi:namedview
     id="base"
     pagecolor="#ffffff"
     bordercolor="#666666"
     borderopacity="1.0"
     inkscape:pageopacity="0.0"
     inkscape:pageshadow="2"
     inkscape:zoom="2.8284271"
     inkscape:cx="187.70336"
     inkscape:cy="182.96356"
     inkscape:document-units="px"
     inkscape:current-layer="layer2"
     showgrid="false"
     fit-margin-top="0"
     fit-margin-left="0"
     fit-margin-right="0"
     fit-margin-bottom="0"
     inkscape:window-width="2560"
     inkscape:window-height="1413"
     inkscape:window-x="0"
     inkscape:window-y="27"
     inkscape:window-maximized="0"
     inkscape:snap-intersection-paths="true" />
  <metadata
     id="metadata7">
    <rdf:RDF>
      <cc:Work
         rdf:about="">
        <dc:format>image/svg+xml</dc:format>
        <dc:type
           rdf:resource="http://purl.org/dc/dcmitype/StillImage" />
        <dc:title></dc:title>
      </cc:Work>
    </rdf:RDF>
  </metadata>
  <g
     inkscape:groupmode="layer"
     id="layer2"
     inkscape:label="Layer 2"
     style="display:inline">
    <path
       transform="translate(-158.3399,-221.78)"
       style="display:inline;fill:#304a96;fill-opacity:1;stroke:#000000"
       d="m 387.2877,362.39409 c -16.81613,-14.07006 -15.46369,-12.91113 -16.81613,-14.07006 -5.04681,-4.32469 -11.30928,-10.89251 -13.84166,-14.51657 -0.86473,-1.2375 -1.89358,-2.25 -2.28635,-2.25 -1.12575,0 0.81367,12.28968 2.94982,18.69234 l 1.93763,5.80766 -4.5085,-5 c -5.56459,-6.1712 -9.11648,-13.48553 -11.09257,-22.84262 -1.26529,-5.99136 -1.32767,-9.1452 -0.38286,-19.35918 0.62077,-6.71098 1.71794,-14.47348 2.43816,-17.25 0.82756,-3.19033 0.93873,-5.0482 0.30207,-5.0482 -1.07446,0 -11.56408,5.87122 -15.65698,8.76349 -1.90029,1.34285 -2.25844,1.39646 -1.57982,0.23651 5.90339,-10.09069 17.36791,-22.54727 25.84675,-28.08335 6.83886,-4.46529 15.85708,-7.64926 26.5117,-9.36022 l 7.67874,-1.23307 -5.5,-1.77762 c -8.54935,-2.76316 -21.03495,-3.06057 -30,-0.7146 -4.125,1.07942 -7.63909,1.83241 -7.80909,1.6733 -0.81997,-0.76744 12.55131,-6.51678 17.58961,-7.56314 11.23371,-2.33301 36.04881,0.0614 47.46948,4.58024 1.4337,0.56729 1.75,0.14544 1.75,-2.33396 0,-3.74278 -7.60132,-12.43986 -15.05028,-17.21984 -2.76417,-1.77377 -4.87085,-3.37994 -4.68151,-3.56928 0.60175,-0.60175 8.08349,1.75058 12.23179,3.8458 2.2,1.11117 8.275,6.17358 13.5,11.24979 5.45703,5.30163 12.5931,11.04367 16.76804,13.49239 3.99743,2.34461 7.51148,4.65682 7.80902,5.13824 0.29754,0.48143 0.97356,0.87532 1.50228,0.87532 0.52872,0 0.11416,-1.6875 -0.92123,-3.75 -2.63682,-5.25251 -5.86765,-15.6252 -7.14263,-22.93165 -1.11605,-6.39568 0.0431,-14.61851 2.25336,-15.9845 0.65354,-0.40391 0.78855,0.30137 0.37392,1.95338 -1.04536,4.16505 1.18672,12.55252 5.92019,22.24625 5.50069,11.26493 12.4314,19.95887 18.93705,23.75478 11.69055,6.8212 16.48926,12.58365 17.99241,21.60586 0.9482,5.69129 6.55032,11.85377 15.73772,17.31191 10.37968,6.16645 11.20233,8.1803 8.20918,20.09607 -1.46499,5.83214 -1.84921,6.36699 -6.26594,8.72214 l -4.70525,2.50901 -3.3707,-5.16534 c -6.68919,-10.25068 -17.46605,-15.93398 -35.82151,-18.8909 -14.3143,-2.30591 -14.16981,-2.25492 -16.30319,-5.75385 -1.49945,-2.45922 -1.96613,-5.033 -1.96898,-10.85911 -0.004,-7.47859 -0.0794,-7.70945 -3.67526,-11.2021 -14.74761,-14.32432 -40.40983,-15.22363 -47.33017,-1.65865 -2.52004,4.93969 -2.6855,15.18364 -0.34285,21.22646 16.25556,26.99416 43.40217,42.16908 57.19074,69.46435 7.4209,14.75944 8.82389,24.32735 7.22997,49.30589 -2.54553,39.89117 -6.40896,55.64007 -18.61708,75.8906 -3.0025,4.98048 -5.45909,9.20655 -5.45909,9.39127 14.86614,-5.34789 28.71566,24.38261 43.50136,18.81619 5.59159,-2.12529 14.49864,-3.71865 14.49864,-2.59362 0,0.40234 -1.35,2.2691 -3,4.14834 -6.12334,6.9741 -1.9061,10.50449 5.68328,4.75766 4.01303,-3.03875 8.07918,-3.0582 14.09996,-0.0675 14.67205,7.28814 34.41109,13.16467 41.14368,12.24892 11.47774,-1.56117 10.40447,-11.78745 -1.26066,-12.01178 -3.49381,-0.0672 -4.2144,0.25681 -4.46452,2.00739 -0.16404,1.14812 0.45004,2.70853 1.36462,3.46756 1.44522,1.19943 1.90018,1.087 3.47595,-0.859 0.9972,-1.23148 2.07208,-1.82 2.38863,-1.30781 1.92847,3.12033 -4.75871,7.08592 -9.27226,5.49858 -3.12965,-1.10064 -5.57294,-5.60018 -4.77256,-8.78913 0.75354,-3.00233 4.56919,-4.60252 10.91093,-4.57575 15.4944,0.0654 24.27332,13.84726 14.57565,22.88201 l -2.24982,2.09607 -196.11144,0 -198.45597,0.007 c 0,0 -0.34931,-6.62893 1.55954,-9.54221 1.18071,-1.80199 2.50942,-2.46482 4.94098,-2.46482 1.82929,0 3.64706,0.51953 4.0395,1.15451 0.42296,0.68437 0.27622,0.88423 -0.36036,0.49081 -1.11104,-0.68666 -4.23513,1.8147 -4.23513,3.39092 0,1.96616 3.63979,2.77284 8.45351,1.87354 6.38307,-1.19248 9.47438,-3.29923 10.20557,-6.95516 0.72283,-3.61418 1.53606,-3.64556 8.96649,-0.34606 6.91653,3.0713 15.78585,4.07938 19.27627,2.19093 3.50277,-1.89513 4.83758,-4.40307 3.48586,-6.54949 -1.6577,-2.6323 -3.61408,-2.5856 -7.69484,0.18368 -4.54186,3.08219 -4.63875,2.19848 -0.44286,-4.03901 4.16984,-6.19877 9.97915,-10.21681 15.92909,-11.01745 6.41932,-0.8638 8.93463,-0.0348 13.98152,4.60789 5.4645,5.02687 11.4416,8.01489 16.03267,8.01489 7.19068,0 7.70384,-5.58581 0.98319,-10.70214 l -4.32354,-3.29145 2.82354,-1.09095 c 2.74163,-1.05931 10.2422,-0.7723 15.32353,0.58636 32.84988,-34.46722 123.55202,-39.98399 143.84065,-82.75182 5.08151,-10.79221 6.52145,-17.22085 6.55164,-29.25 0.0227,-9.0436 -0.35529,-11.91457 -2.12526,-16.14222 -2.79532,-6.6767 -8.15157,-15.35778 -9.47581,-15.35778 m 67.66215,-84.25 c -1.71056,-5.64824 -8.73588,-13.75 -11.92311,-13.75 -1.35299,0 -2.53026,2.10997 -2.53026,4.53487 0,0.75421 1.50357,2.08478 3.34126,2.95683 1.83769,0.87204 4.85097,3.14315 6.69617,5.04691 3.87641,3.99945 5.38568,4.41347 4.41594,1.21139 z"
       id="path3347"
       inkscape:connector-curvature="0"
       sodipodi:nodetypes="csssscssssssssscssssssssssssssssssssssscssscssccssccsssssssssssssscccsssssssssssssssscsccsscssssss" />
    <path
       style="display:inline;fill:#3d9c46;fill-opacity:1;stroke:#000000"
       d="m 362.03125,170.53906 -2.79102,0.6875 c -7.3279,1.80225 -10.79854,7.42523 -10.0625,16.30078 l 0.43946,5.30664 -2.58399,-2.3457 c -6.51963,-5.919 -16.96251,-9.74462 -26.30468,-9.63867 l -6.28125,0.0703 6,1.74414 c 6.23551,1.8126 11.98491,4.46972 12.91015,5.9668 0.29488,0.47713 -2.265,1.15934 -5.6875,1.51562 -8.23204,0.85695 -15.67743,4.62861 -22.39648,11.34766 -3.00907,3.00906 -5.2538,5.68956 -4.98828,5.95508 0.26552,0.26551 3.51739,-1.12837 7.22461,-3.0957 3.70722,-1.96733 7.68328,-3.54998 8.83789,-3.51758 2.0532,0.0575 2.0569,0.085 0.14453,1.25 -6.69377,4.0779 -12.91102,11.5393 -17.63086,21.16015 -2.70268,5.50911 -4.91406,10.46569 -4.91406,11.01368 0,0.54799 2.0349,-2.03556 4.52148,-5.74219 2.48659,-3.70662 4.68372,-6.74024 4.88281,-6.74024 0.19908,0 -0.313,1.9125 -1.13867,4.25 -2.18218,6.17783 -2.77091,16.87505 -1.23047,22.37696 1.14727,4.09764 8.70658,16.9653 9.5,16.17187 0.16586,-0.16586 -0.58651,-4.05003 -1.67187,-8.63281 -1.08536,-4.58279 -1.80349,-8.84346 -1.59571,-9.4668 0.62279,-1.86837 7.56443,12.99011 8.27149,17.70508 0.48963,3.26509 0.15582,5.49795 -1.31641,8.82617 -3.03934,6.87094 -10.2603,11.08852 -24.31445,14.20508 -4.17265,0.92529 -10.74457,1.93459 -15.61914,2.50977 11.06494,2.42929 21.70807,19.1908 32.77344,19.81836 1.06144,-0.67082 2.72654,-1.61369 5.16406,-2.89844 10.06911,-5.30718 19.12393,-14.74724 24.41797,-25.45899 3.17947,-6.43322 3.89846,-9.03495 4.21093,-15.22265 0.45945,-9.09859 -0.6891,-13.20959 -5.85742,-20.94922 -4.72961,-7.08264 -7.64765,-17.01463 -6.61133,-22.50586 0.94439,-5.00417 5.85421,-10.49568 10.09375,-11.29102 3.54712,-0.66544 10.36135,1.83315 10.70704,3.92578 0.10321,0.62483 0.2157,3.82216 0.25,7.10352 l 0.0625,5.96484 8.5,3.09571 c 4.675,1.70213 9.8957,3.83146 11.60156,4.73242 3.79789,2.00579 9.28268,8.10789 10.54687,11.73437 0.88217,2.53058 1.129,2.62084 4.37305,1.60547 2.74185,-0.85818 3.84749,-2.02742 5.45898,-5.77343 1.11136,-2.58344 2.01954,-5.3031 2.01954,-6.04493 0,-0.74183 -2.52522,-3.80824 -5.61133,-6.81445 -6.22075,-6.0597 -8.38867,-10.08318 -8.38867,-15.56445 0,-3.20638 -0.90786,-4.58216 -7.3086,-11.06641 -8.80424,-8.91909 -13.75694,-16.73387 -14.43945,-22.78906 -0.44959,-3.98883 -0.17207,-4.7791 2.66601,-7.61719 l 3.16602,-3.16797 z m 4.45508,40.23828 c 1.66952,0 5.11485,4.7683 6.0039,8.31055 0.90067,3.58858 -0.29944,3.21189 -4.74218,-1.49414 -3.57295,-3.7847 -4.13374,-6.81641 -1.26172,-6.81641 z"
       id="path3347-4-7"
       inkscape:connector-curvature="0" />
    <path
       inkscape:connector-curvature="0"
       style="display:inline;fill:#ddda45;fill-opacity:1;stroke:#000000"
       d="m 28.447266,140.53516 3.486328,2.40039 c 6.34269,4.36935 7.305265,8.77693 4.009765,18.35547 -2.40271,6.9836 -5.697827,12.74615 -9.998047,17.48632 -5.199929,5.73195 -6.998046,10.18137 -6.998046,17.32032 0,6.63806 -1.611986,10.23563 -7.478516,16.67968 -4.15175,4.56046 -4.7769038,6.65851 -3.0585938,10.26172 2.6450698,5.54658 5.7935698,8.50355 9.7871098,9.1875 3.25604,0.55764 3.75,0.38861 3.75,-1.28125 0,-7.34468 8.39868,-16.35334 21.5,-23.06054 9.97782,-5.10812 9.603036,-4.39174 7.972656,-15.17579 -0.64751,-4.2829 -0.492789,-4.73667 2.49414,-7.25 4.73003,-3.98007 11.682179,-3.80599 16.486329,0.41211 4.45992,3.91587 5.878683,8.66863 5.402343,18.10157 -0.30242,5.98876 -1.006039,8.67534 -3.537109,13.5039 -4.57787,8.73328 -6.318359,15.5645 -6.318359,24.80078 0,9.26994 1.74698,16.08882 6.53125,25.49805 6.45038,12.68598 13.214312,19.36566 28.142574,27.79102 3.20482,1.80877 6.95118,4.20842 8.32618,5.33398 l 0.75585,0.61914 c 11.16052,-11.27096 28.55516,-19.42502 47.53516,-26.85937 -8.50239,-0.89372 -22.73032,-3.10723 -27.59766,-4.375 -24.36086,-6.3452 -34.833221,-17.00283 -33.416011,-34.00782 0.56892,-6.82641 3.711779,-16.66239 5.515621,-17.26367 1.49554,-0.49852 1.67226,9.66001 0.25391,14.60547 -1.43808,5.01431 1.22184,2.34655 4.67969,-4.69336 2.47048,-5.02972 2.77326,-6.74256 2.77344,-15.64844 1.9e-4,-9.68716 -0.12029,-10.2284 -3.86915,-17.29687 -2.12843,-4.0132 -3.6655,-7.50051 -3.41601,-7.75 0.24949,-0.2495 3.06204,1.37425 6.25,3.60742 3.76977,2.64073 5.5644,3.45752 5.13477,2.33789 -1.55649,-4.05612 -10.04499,-15.62425 -13.863286,-18.89258 -3.74143,-3.20252 -11.670898,-6.50586 -15.617188,-6.50586 -0.94988,0 -1.162619,-0.34682 -0.568359,-0.92773 1.25711,-1.22886 9.278042,0.31561 15.169922,2.92187 2.524281,1.11661 4.753831,1.86533 4.955081,1.66407 0.72504,-0.72504 -8.568078,-8.56164 -12.578128,-10.60743 -6.8691,-3.50434 -15.782106,-5.33825 -22.541016,-4.63671 l -6.05664,0.6289 3.5,-3.0332 c 1.925,-1.66783 6.65,-4.6222 10.5,-6.56641 l 7,-3.53515 -5.404297,0.51757 c -7.45137,0.71304 -21.267563,7.64767 -27.095703,13.59961 l -4.5,4.59375 0,-5.05859 c 0,-9.37445 -5.05215,-15.54726 -14,-17.10547 l -4,-0.69726 z m 2.916015,46.24218 c 2.29324,0 2.656135,2.92785 0.615235,4.96875 -1.05828,1.05828 -2.635537,3.29927 -3.503907,4.97852 -2.15072,4.15913 -2.894266,3.83359 -2.248047,-0.98438 0.61763,-4.60472 3.114499,-8.96289 5.136719,-8.96289 z"
       id="path3347-4-1" />
    <path
       inkscape:connector-curvature="0"
       style="display:inline;fill:#e02826;fill-opacity:1;stroke:#000000"
       d="m 131.2168,28.279296 -3.05274,3.265625 c -4.47922,4.79502 -12.87982,8.286323 -21.51562,8.939453 -6.678777,0.50511 -7.895907,0.279708 -14.740237,-2.732422 -8.69095,-3.82481 -16.480636,-4.428351 -21.660156,-1.675781 -4.80905,2.55568 -11.403835,2.126822 -19.958985,-1.298828 C 39.172622,30.326103 38.18104,30.53129 31.5,38.65039 c -3.16955,3.85177 -3.566772,4.94134 -3.326172,9.15039 l 0.273438,4.777344 6.53125,-0.09766 c 10.04317,-0.14887 17.641835,3.844247 29.541015,15.523437 5.19671,5.10065 9.89286,9.228828 10.4375,9.173828 0.54461,-0.055 1.856193,-0.1675 2.914063,-0.25 1.05788,-0.0825 4.059039,-1.780044 6.667968,-3.771484 4.622642,-3.52854 4.923542,-3.609123 11.826172,-3.158203 15.704546,1.02591 27.524276,11.620021 30.605466,27.431641 1.73406,8.898577 -0.01,19.750517 -5.99609,37.300787 -3.07711,9.02091 -5.40553,17.96598 -6.12695,23.54687 -1.37509,10.63756 -0.6705,25.42977 1.67187,35.08985 1.92336,7.93207 8.7054,23.02395 13.51953,30.08789 4.77371,7.00464 15.46236,17.86805 22.63867,23.00781 12.64373,9.0556 16.91425,16.41361 14.23047,24.50781 17.54463,-6.57404 35.73169,-12.89817 51.12696,-20.74414 -1.79135,-0.0175 -29.34704,-14.60176 -36.08789,-18.67968 -20.34898,-12.31025 -33.50133,-28.45395 -37.04688,-45.47461 -1.79888,-8.63567 -0.64655,-23.96179 2.57813,-34.29493 3.84973,-12.33604 4.64556,-12.27841 4.28125,0.31055 l -0.3125,10.81055 2.25781,-2.81055 c 3.34213,-4.16132 6.32617,-12.92802 6.95508,-20.42969 0.4938,-5.89002 -0.95552,-20.74373 -2.38868,-24.47851 -0.29586,-0.77098 -0.14841,-1.40235 0.32813,-1.40235 1.74372,0 3.63215,4.56313 5.35156,12.93164 l 1.76172,8.56836 0.86719,-4 c 0.47731,-2.2 0.85163,-8.725 0.83203,-14.5 -0.0448,-13.20932 -1.6331,-16.801559 -11.13281,-25.173829 -4.47951,-3.94786 -3.89866,-5.422218 1.52343,-3.867188 4.14641,1.18918 8.65105,4.721391 11.78125,9.238281 1.46311,2.11126 2.83874,3.661286 3.05664,3.443366 0.21794,-0.21792 -0.8369,-3.039988 -2.34374,-6.269537 -3.85213,-8.25591 -15.70478,-20.012144 -24.84961,-24.648434 -5.66743,-2.87331 -6.63777,-3.692168 -5.10352,-4.298828 1.8007,-0.71202 15.84767,0.726474 20.10352,2.058594 1.1,0.3443 -0.68842,-0.807394 -3.97461,-2.558594 -5.66957,-3.02129 -30.98641,-11.923828 -33.90821,-11.923828 -0.75472,0 -3.09924,-0.721206 -5.21093,-1.603516 l -3.83985,-1.605469 3.83008,-1.316406 c 6.69199,-2.3006 11.3799,-8.181989 13.13281,-16.474609 l 0.74024,-3.498047 z M 76.462891,44.277343 c 4.78103,0 6.860608,0.446546 8.167968,1.753906 1.67196,1.67196 1.661387,1.845629 -0.214843,3.693359 -1.72441,1.69822 -2.2012,1.764513 -3.84961,0.539063 -1.03483,-0.7693 -4.345942,-1.909976 -7.357422,-2.535156 -7.31206,-1.51797 -5.489123,-3.451172 3.253907,-3.451172 z"
       id="path3347-4-3" />
    <path
       inkscape:connector-curvature="0"
       style="display:inline;fill:#e7762a;fill-opacity:1;stroke:#000000"
       d="m 276.66992,98.185549 c -1.27506,-0.002 -0.77986,6.667211 0.89063,10.187501 1.60771,3.388 12.6537,14.40429 14.44336,14.40429 0.51865,0 0.94336,0.47614 0.94336,1.0586 0,0.58246 -0.47736,0.76398 -1.0625,0.40234 -0.58514,-0.36163 -5.19764,-1.0255 -10.25,-1.47461 -6.42578,-0.5712 -12.79338,-2.03241 -21.1875,-4.86523 -4.51842,-1.52486 -7.39601,-2.56587 -9.60743,-3.60156 12.63778,12.80267 25.6927,24.81796 33.95508,41.17382 l -4.01758,-7.98828 5.67188,0.66602 c 8.62062,1.01318 11.05874,2.72639 14.76367,10.36914 1.7791,3.67003 4.3724,7.49222 5.76172,8.49414 2.48598,1.79279 2.70012,1.7625 13.5,-1.91406 10.11275,-3.44264 11.87515,-3.73845 22.47266,-3.77735 10.20702,-0.0375 12.00595,0.22378 16,2.32422 2.475,1.30158 5.25314,3.02548 6.17187,3.83203 1.49152,1.3094 1.79945,1.2179 2.875,-0.86523 0.6625,-1.28313 2.05698,-3.27238 3.09961,-4.41992 1.80195,-1.98326 1.82058,-2.44437 0.375,-9.31641 -0.83643,-3.97625 -1.96168,-8.05273 -2.5,-9.05859 -1.17769,-2.20054 -6.05862,-4.03907 -10.72266,-4.03907 -1.87185,0 -6.51766,-0.70841 -10.32421,-1.57422 -7.04672,-1.60273 -8.27171,-2.43748 -15.62891,-10.65039 -3.70886,-4.14023 -9.88204,-6.49818 -19.23242,-7.34765 -8.14706,-0.74015 -14.84896,-2.74694 -22.38086,-6.69922 -6.37804,-3.34681 -12.73242,-9.67027 -12.73242,-12.67188 0,-1.065936 -0.45,-2.216714 -1,-2.556634 -0.10092,-0.0624 -0.19234,-0.0916 -0.27735,-0.0918 z m -64.53906,28.359371 4.68555,4.01367 -6.18555,2.21485 c -6.43805,2.30632 -14.60192,6.99696 -16.81055,9.6582 -1.09611,1.32073 -0.70896,1.29957 2.67383,-0.14844 12.70837,-5.43982 23.69544,-6.98377 29.25391,-4.10937 0.31203,0.16136 0.59518,0.33159 0.88086,0.5 -10.52099,-8.79776 -13.33206,-11.12975 -14.49805,-12.12891 z m 103.45117,5.23242 c 3.6778,0 9.63828,2.52528 13.14063,5.56641 2.0486,1.77884 3.49961,3.45875 3.22461,3.73242 -0.275,0.27367 -3.2,-0.35611 -6.5,-1.39844 -3.35657,-1.0602 -7.21157,-1.6411 -8.75,-1.31835 -2.59527,0.54444 -2.75,0.37609 -2.75,-3.00196 0,-2.64552 0.42711,-3.58008 1.63476,-3.58008 z m -86.63476,8.83594 c 0,0.4319 -2.29672,1.37439 -5.10352,2.09375 -12.65107,3.24237 -25.90352,12.80167 -33.78906,24.37109 -3.42815,5.0297 -10.10742,16.52617 -10.10742,17.39844 0,0.27914 1.53383,-0.83865 3.4082,-2.48437 5.0606,-4.44327 12.65206,-9.48857 13.30078,-8.83985 0.31235,0.31235 -1.2866,4.38001 -3.55273,9.03907 -4.66543,9.59189 -6.09566,14.79365 -6.13086,22.28711 -0.0503,10.71103 4.47265,23.78259 10.83007,31.29882 l 2.96094,3.5 -1.41992,-5.5 c -1.54804,-5.99607 -3.0135,-19 -2.14063,-19 0.92672,0 13.39421,17.27797 15.51368,21.5 2.73967,5.45749 5.03885,12.55484 5.32422,13.94922 13.11485,-6.68429 24.20393,-14.47438 31.125,-24.47461 -0.0115,0.003 -0.0311,0.0254 -0.041,0.0254 -0.39683,0 -1.52271,-1.4625 -2.50195,-3.25 -0.97924,-1.7875 -4.05156,-5.725 -6.82617,-8.75 -2.77466,-3.025 -6.99646,-8.09654 -9.38086,-11.26953 -10.4105,-13.85357 -7.04738,-27.08077 9.9707,-39.22461 3.47351,-2.47865 6.78108,-4.50586 7.35156,-4.50586 l -18.79101,-18.16406 z m -10.90625,109.61328 c -0.001,5.3e-4 -0.003,-5.2e-4 -0.004,0 7.4e-4,1e-5 0.003,0.002 0.004,0.002 0,0 0,-0.002 0,-0.002 z"
       id="path3347-4-9" />
  </g>
</svg>
