<?xml version="1.0" encoding="utf-8"?>
<!-- Generator: Adobe Illustrator 16.0.0, SVG Export Plug-In . SVG Version: 6.00 Build 0)  -->
<!DOCTYPE svg PUBLIC "-//W3C//DTD SVG 1.1//EN" "http://www.w3.org/Graphics/SVG/1.1/DTD/svg11.dtd">
<svg version="1.1" id="Layer_1" xmlns="http://www.w3.org/2000/svg" xmlns:xlink="http://www.w3.org/1999/xlink" x="0px" y="0px"
	 width="50px" height="50px" viewBox="0 0 50 50" enable-background="new 0 0 50 50" xml:space="preserve">
<polygon fill="#939598" points="25,28.215 29.606,46.641 20.393,46.641 "/>
<polygon fill="#939598" points="28.215,25 46.617,20.398 46.617,29.601 "/>
<polygon fill="#939598" points="25,21.785 20.398,3.382 29.601,3.382 "/>
<polygon fill="#939598" points="21.785,25 3.36,29.606 3.36,20.393 "/>
<polyline fill="#939598" points="27.383,22.593 32.534,3.358 46.617,3.358 46.617,17.441 46.617,17.486 27.383,22.641 "/>
<polyline fill="#939598" points="22.593,22.618 3.36,17.464 3.36,3.382 17.439,3.382 17.487,3.382 22.641,22.618 "/>
<polyline fill="#939598" points="27.383,27.406 32.534,46.641 46.617,46.641 46.617,32.561 46.617,32.513 27.383,27.359 "/>
<polyline fill="#939598" points="22.593,27.383 3.36,32.537 3.36,46.617 17.439,46.617 17.487,46.617 22.641,27.383 "/>
</svg>
